inDegrees=no
num_controls=7
num_derivatives=13
num_iterations=154
num_multipliers=7
num_parameters=0
num_slacks=7
num_states=26
objective=0.497094
objective_accelerations=0.042139
objective_balance=0.003538
objective_effort=0.039649
objective_height=0.405939
objective_ligament=0.005830
solver_duration=1753.605232
status=Solve_Succeeded
success=true
DataType=double
version=3
OpenSimVersion=4.5
endheader
time	/jointset/ground_pelvis/pelvis_tilt/value	/jointset/ground_pelvis/pelvis_tx/value	/jointset/ground_pelvis/pelvis_ty/value	/jointset/hip_r/hip_flexion_r/value	/jointset/hip_r/hip_adduction_r/value	/jointset/hip_r/hip_rotation_r/value	/jointset/back/lumbar_extension/value	/jointset/patellofemoral_r/patellar_flexion_r/value	/jointset/knee_r/knee_flexion_r/value	/jointset/knee_r/knee_adduction_r/value	/jointset/knee_r/knee_rotation_r/value	/jointset/ankle_r/ankle_angle_r/value	/jointset/subtalar_r/subtalar_angle_r/value	/jointset/ground_pelvis/pelvis_tilt/speed	/jointset/ground_pelvis/pelvis_tx/speed	/jointset/ground_pelvis/pelvis_ty/speed	/jointset/hip_r/hip_flexion_r/speed	/jointset/hip_r/hip_adduction_r/speed	/jointset/hip_r/hip_rotation_r/speed	/jointset/back/lumbar_extension/speed	/jointset/patellofemoral_r/patellar_flexion_r/speed	/jointset/knee_r/knee_flexion_r/speed	/jointset/knee_r/knee_adduction_r/speed	/jointset/knee_r/knee_rotation_r/speed	/jointset/ankle_r/ankle_angle_r/speed	/jointset/subtalar_r/subtalar_angle_r/speed	/forceset/tau_hip_flexion_r	/forceset/tau_hip_adduction_r	/forceset/tau_hip_rotation_r	/forceset/tau_knee_flexion_r	/forceset/tau_ankle_angle_r	/forceset/tau_subtalar_angle_r	/forceset/tau_lumbar_extension	lambda_cid13_p0	lambda_cid14_p0	lambda_cid14_p1	lambda_cid14_p2	lambda_cid14_p3	lambda_cid14_p4	lambda_cid14_p5	/jointset/ground_pelvis/pelvis_tilt/accel	/jointset/ground_pelvis/pelvis_tx/accel	/jointset/ground_pelvis/pelvis_ty/accel	/jointset/hip_r/hip_flexion_r/accel	/jointset/hip_r/hip_adduction_r/accel	/jointset/hip_r/hip_rotation_r/accel	/jointset/back/lumbar_extension/accel	/jointset/patellofemoral_r/patellar_flexion_r/accel	/jointset/knee_r/knee_flexion_r/accel	/jointset/knee_r/knee_adduction_r/accel	/jointset/knee_r/knee_rotation_r/accel	/jointset/ankle_r/ankle_angle_r/accel	/jointset/subtalar_r/subtalar_angle_r/accel	gamma_cid13_p0	gamma_cid14_p0	gamma_cid14_p1	gamma_cid14_p2	gamma_cid14_p3	gamma_cid14_p4	gamma_cid14_p5
1.5	-0.147866755841686	0.04489880880951341	0.8510761781623456	0.7764908181943745	-0.2401234435640992	-0.1116573814659691	-0.2857865698057754	0.7230935351174138	0.7230935351174229	0.06453177831762985	0.1745310122294932	0.2625979194939979	0.04256293081174136	0.3342195405727996	0.1546158614787466	0.4095981116964519	-1.754021428904531	0.03736918286783322	-0.4002678232760948	0.698603677934319	-1.954642778506647	-1.954642778506627	0.1859783940155443	-5.257817816043793e-06	-0.6231568641456615	-0.1150668083828493	-0.09066842349198684	-0.01960750530564544	0.01138258783825301	-0.3337835696733437	0.06361209329530586	-0.01116903643837884	0.1388132468704573	-30.01099065180727	-20.86820243837482	-4.502828221070574	-3.393124928621865	2.322029387970598	-655.194993776434	58.12594778383065	0.1646718307406696	0.3524120534768833	-0.5472970904164062	-0.8368797235976153	0.1001159339583832	-0.3395990214341889	1.334664509417121	-1.129486469743437	-1.129486469743423	0.5266709169950358	-0.02643765633182193	-0.5519163363301517	0.04576960315699576	1.486859487662946e-07	9.860024995938812e-08	-1.45447431966742e-06	8.048962746922161e-07	9.539170954060201e-08	2.010912333163276e-07	-1.072224516653689e-06
1.51	-0.1445166067489979	0.04646236089846601	0.8551439360021194	0.7589107411477636	-0.2397455021687276	-0.115677396346542	-0.2787351171442086	0.7034932261089614	0.7034932261089664	0.06641899895147704	0.174531016358246	0.2563393559649803	0.04141367918133262	0.3357626411266879	0.1580680957432654	0.4038660806977327	-1.761745099614763	0.03821516752918533	-0.4037085585506058	0.7115719384909251	-1.965131348098647	-1.965131348098616	0.1914616737246988	2.644514978927987e-06	-0.6284626536744741	-0.1147663394711101	-0.08437317658012443	-0.02152090487533783	0.01083131921443407	-0.3302012935931961	0.06715550018473204	-0.01219703669053483	0.1330433376651358	-31.14467927634533	-19.57221545113642	-4.614294029625128	-3.498803681993465	1.9117637622815	-651.3029389096247	58.07347893863607	0.1419924202826002	0.3376807488533069	-0.5992172168565504	-0.7027669148345591	0.07624359251075782	-0.3421009579019287	1.260669445569733	-0.9654233492272639	-0.9654233492256176	0.5583549494518011	0.01403006506727112	-0.5058966345453684	0.02461170204136775	1.574998876289e-07	1.032161119374758e-07	-1.550097369771801e-06	8.399929468021006e-07	1.008131426960996e-07	2.17603055794765e-07	-1.136433552341188e-06
1.52	-0.1411524540002571	0.04805964565724659	0.8591517613094546	0.7412608961600307	-0.2393592201546854	-0.1197309766153484	-0.2715574293537181	0.683796655175529	0.6837966551755299	0.06836089207273065	0.1745310246877231	0.2500305372659968	0.04026791747341307	0.3370202717833638	0.1613623954443424	0.3976116052087386	-1.767975017128937	0.03903730660202298	-0.4069809009228116	0.7238507037190258	-1.973895163502606	-1.973895163502563	0.1969128914968991	-4.417672941574718e-06	-0.6332078981388293	-0.1143688238850113	-0.07807792966826124	-0.02343430444503044	0.01028005059061644	-0.3266190175130484	0.07069890707415807	-0.01322503694269117	0.127273428459815	-32.2612313652403	-18.28001205639389	-4.722718413369948	-3.60919849712176	1.49143202183821	-647.47958774412	58.08110172865066	0.1075778512981977	0.3208251407885067	-0.6517859884713499	-0.5381290843859944	0.09534681625549278	-0.3059204409731445	1.196765443716042	-0.7845356321350186	-0.7845356321350175	0.5202585296041909	-0.02943056047491715	-0.4398073234387093	0.06517893802891792	1.654343536078381e-07	1.015662640038153e-07	-1.645997485761804e-06	8.537473826476159e-07	1.123169986256756e-07	2.166259722202392e-07	-1.191630598330392e-06
1.53	-0.1377772995307165	0.04968905120818509	0.8630944764615858	0.7235564299390465	-0.2389648673327144	-0.1238166305132824	-0.2642603134397924	0.6640212181598446	0.6640212181598453	0.07035705881591853	0.1745310689572684	0.2436771363858413	0.03912660375950273	0.3379613168713812	0.1644887517861954	0.3908521574650358	-1.772665888316199	0.03982865211433828	-0.4101213625654738	0.7354493432752595	-1.980898672491812	-1.980898672491807	0.2023138625088601	9.588354566865897e-06	-0.6373745524446711	-0.1138771358931382	-0.07173717536289079	-0.02545987708531237	0.009697367928370761	-0.3232305109791674	0.07442108726370732	-0.01437835252047289	0.1214912226278079	-33.34770850330721	-16.95238662770629	-4.885424688756748	-3.704017362037814	1.070873341947249	-643.9138979391735	58.03700315328305	0.07998077358907454	0.304074417662539	-0.6998770110035362	-0.3967048559090232	0.07030477412830491	-0.3136019435843403	1.122942842957805	-0.614258697321977	-0.6142586973276103	0.5488071963672393	0.01640434857815809	-0.3903979966116095	0.04349824415060931	1.7243437964788e-07	9.325909928892248e-08	-1.742191984255279e-06	8.44825692462239e-07	1.302834287527099e-07	1.970669259644401e-07	-1.23725240526516e-06
1.54	-0.1343942120230886	0.0513488270298979	0.8669672265675431	0.7058126272621872	-0.2385627457845388	-0.1279327876111773	-0.2568509052040283	0.6441845460212667	0.6441845460212663	0.07240699343110057	0.1745311709199316	0.2372850082601366	0.03799067382838794	0.3386068794008208	0.1674364495992036	0.3836185959739803	-1.77584230830397	0.04059105184300411	-0.4130815409149999	0.746309168086724	-1.986142188081359	-1.986142188081392	0.207666465895829	7.120950652570603e-06	-0.6409533472487006	-0.1132920673259012	-0.06539642105751969	-0.02748544972559457	0.009114685266126899	-0.3198420044452864	0.07814326745325637	-0.01553166809825504	0.1157090167958016	-34.39803671162444	-15.63266013915395	-5.045443069670306	-3.803915171470961	0.6501938116340873	-640.4804941688967	58.06054468909958	0.04848133958264527	0.2850934350195582	-0.7466087379418603	-0.2352388444878928	0.08955765952560128	-0.2698637823459732	1.049002494762226	-0.4325369522031055	-0.432536952203109	0.5105850046057889	-0.03272524675946552	-0.3222354230762356	0.08385505310167625	1.797156925026984e-07	8.739906859530423e-08	-1.837268342133285e-06	8.425362433792851e-07	1.451161255538617e-07	1.853411116010312e-07	-1.283324293854619e-06
1.55	-0.1310062249433868	0.05303716021117577	0.8707653478248972	0.6880447096197507	-0.2381531763889705	-0.1320778142614131	-0.2493365755006486	0.6243042965457696	0.6243042965457686	0.07451017260460298	0.1745313242558024	0.2308600675977663	0.03686104180464171	0.3389374395504816	0.1701973749656732	0.3759351114387966	-1.777483887366073	0.04131777102054871	-0.4158932622497461	0.7564297377008761	-1.989609196822715	-1.989609196822723	0.212958918044128	1.967180635812701e-05	-0.643932661229441	-0.1126175585550515	-0.05902097747812791	-0.02968031267482072	0.008494457858534907	-0.316646132516744	0.08206505207313541	-0.01678088445017402	0.1099350242092225	-35.40648102689599	-14.26963206541257	-5.242410432106789	-3.894630992982166	0.2141825132902613	-637.3151159859073	58.07019378118121	0.017387097592363	0.2667028483864067	-0.7897636919693313	-0.09000788367325993	0.06341477794033618	-0.2820059150743993	0.9745289614971275	-0.259044615060031	-0.2590446150561919	0.5367618772321618	0.01781022273408135	-0.2704203337696792	0.061554309901007	1.873210966875853e-07	8.435856188271957e-08	-1.931056407563035e-06	8.478882894795571e-07	1.56338216566497e-07	1.826405426788539e-07	-1.329914754785352e-06
1.56	-0.1276165235132014	0.05475212479830351	0.874484525160767	0.670268098097373	-0.2377365026554127	-0.1362499940462035	-0.2417248511477761	0.604398324626867	0.6043983246268657	0.07666591361104602	0.1745315160944298	0.2244084056059492	0.03573861597276886	0.338949749497525	0.1727627307691742	0.3678298116771033	-1.777581084292249	0.04201191944095149	-0.4185121678259106	0.7657880979852449	-1.991286676762397	-1.991286676762378	0.2181788324840354	1.482150200422168e-05	-0.6462976131380509	-0.1118508289512263	-0.05264553389873564	-0.03187517562404724	0.007874230450944021	-0.3134502605882016	0.08598683669301424	-0.01803010080209352	0.1041610316226442	-36.3672798308897	-12.91580777775993	-5.436848582315482	-3.990480193282808	-0.2198232380939993	-634.3035747888019	58.15093302126738	-0.01516870094083831	0.245979522425825	-0.8309717832437669	0.07363758269728091	0.0830435080972346	-0.2313006306296066	0.8965606288055822	-0.07463119186811412	-0.07463119186811473	0.4960774629274434	-0.03620547877135984	-0.1993630086501436	0.1022992196967676	1.948402747151869e-07	8.084765305446444e-08	-2.023495829058825e-06	8.510688074192363e-07	1.675418045739562e-07	1.790404119640609e-07	-1.373430637140274e-06
1.57	-0.1242283488732092	0.05649172716433222	0.8781206204552536	0.6524983298918712	-0.2373130701507168	-0.1404475646162616	-0.2340233827471769	0.584484610199283	0.5844846101992824	0.07887342661082826	0.174531730000088	0.217936197449239	0.03462431391935522	0.3386311116934058	0.1751209853192328	0.3593278067973104	-1.776109731822967	0.04266942298428254	-0.420967824521733	0.7743692768414587	-1.991150467714253	-1.991150467714246	0.223307783634955	2.342165666904461e-05	-0.6480380851811468	-0.1109924609267467	-0.04624842965225476	-0.0341642654886111	0.007211155897441426	-0.3103849764517518	0.09003978054516218	-0.01942106980268464	0.09840011818108668	-37.27466830016346	-11.54236456295725	-5.695143630615738	-4.069604671647036	-0.6411395597247227	-631.5490220030381	58.16099721017223	-0.04831370502012561	0.2252718855836598	-0.8689965846601456	0.2233163169702474	0.05624862730021717	-0.2473294169834009	0.8184507200662094	0.1035668054159358	0.1035668054142307	0.5186345817335782	0.01886308636932623	-0.1454564359582776	0.07993385489561561	2.022516700461821e-07	7.674874158162119e-08	-2.114249445637167e-06	8.515349151581746e-07	1.787222638249454e-07	1.743158290084982e-07	-1.413103296275431e-06
1.58	-0.1208449810882326	0.05825381676871907	0.8816698593520796	0.6347511616586475	-0.2368832336406179	-0.1446686179988627	-0.2262401917168081	0.5645814218326323	0.5645814218326325	0.08113169525023139	0.1745319239720496	0.2114497711453342	0.03351906119840078	0.3379883784943796	0.1772601784408041	0.3504585321449919	-1.773061089836623	0.04329272052158084	-0.4232087303345486	0.7821326239391501	-1.989181464575698	-1.989181464575702	0.228329960408249	1.083476269073652e-05	-0.6491412425770018	-0.1100409624593851	-0.03985132540577332	-0.03645335535317514	0.006548081343938967	-0.307319692315302	0.09409272439730999	-0.020812038803276	0.09263920473952986	-38.12299901477936	-10.17943534128086	-5.950850671553674	-4.154201120098371	-1.058831823228558	-628.9706973782676	58.24544751369474	-0.07998777992223535	0.2021672367283505	-0.9044257377488792	0.3890954861095132	0.07620230689068355	-0.1883504540282174	0.7329942771011316	0.2919276262140522	0.2919276262140452	0.4747225874023245	-0.04044288849998823	-0.07190007920198972	0.1209253082731525	2.101875533482178e-07	7.153891195543038e-08	-2.218233365571394e-06	8.467856946388704e-07	1.912792607881813e-07	1.695762327225211e-07	-1.454727864584902e-06
